<svg width="48" height="48" viewBox="0 0 48 48" fill="none" xmlns="http://www.w3.org/2000/svg">
<g filter="url(#filter0_d_1568_5)">
<rect x="8" y="6" width="32" height="32" rx="16" fill="white" shape-rendering="crispEdges"/>
<path d="M29.5 21V18" stroke="black" stroke-linecap="round" stroke-linejoin="round"/>
<path d="M31 19.5H28" stroke="black" stroke-linecap="round" stroke-linejoin="round"/>
<path d="M26.5 15.5V17.5" stroke="black" stroke-linecap="round" stroke-linejoin="round"/>
<path d="M27.5 16.5H25.5" stroke="black" stroke-linecap="round" stroke-linejoin="round"/>
<path d="M29.5436 23.5375C28.562 23.8128 27.5247 23.8218 26.5384 23.5637C25.5521 23.3055 24.6523 22.7895 23.9314 22.0686C23.2105 21.3476 22.6944 20.4478 22.4363 19.4615C22.1781 18.4752 22.1871 17.438 22.4624 16.4563C21.4946 16.7257 20.6142 17.2439 19.909 17.9594C19.2038 18.675 18.6983 19.5627 18.443 20.5344C18.1877 21.506 18.1914 22.5276 18.4538 23.4974C18.7161 24.4671 19.228 25.3512 19.9383 26.0616C20.6487 26.772 21.5328 27.2838 22.5026 27.5462C23.4723 27.8086 24.4939 27.8123 25.4656 27.5569C26.4372 27.3016 27.325 26.7962 28.0405 26.091C28.756 25.3858 29.2743 24.5054 29.5436 23.5375Z" stroke="black" stroke-linecap="round" stroke-linejoin="round"/>
</g>
<defs>
<filter id="filter0_d_1568_5" x="0" y="0" width="48" height="48" filterUnits="userSpaceOnUse" color-interpolation-filters="sRGB">
<feFlood flood-opacity="0" result="BackgroundImageFix"/>
<feColorMatrix in="SourceAlpha" type="matrix" values="0 0 0 0 0 0 0 0 0 0 0 0 0 0 0 0 0 0 127 0" result="hardAlpha"/>
<feOffset dy="2"/>
<feGaussianBlur stdDeviation="4"/>
<feComposite in2="hardAlpha" operator="out"/>
<feColorMatrix type="matrix" values="0 0 0 0 0 0 0 0 0 0 0 0 0 0 0 0 0 0 0.25 0"/>
<feBlend mode="normal" in2="BackgroundImageFix" result="effect1_dropShadow_1568_5"/>
<feBlend mode="normal" in="SourceGraphic" in2="effect1_dropShadow_1568_5" result="shape"/>
</filter>
</defs>
</svg>
